<svg width="1080" height="1080" viewBox="0 0 1080 1080" fill="none" xmlns="http://www.w3.org/2000/svg">
<path fill-rule="evenodd" clip-rule="evenodd" d="M216 173.88V285.662C216 286.001 216.159 286.32 216.429 286.524L512.333 509.796C512.726 510.093 513.269 510.086 513.655 509.78L603.709 438.266C604.262 437.828 604.252 436.985 603.689 436.559L407.565 288.141C406.739 287.516 407.181 286.2 408.217 286.2H693.689C693.828 286.2 693.962 286.225 694.091 286.278C727.384 299.859 779.604 342.983 723.679 407.608C723.628 407.667 723.568 407.724 723.506 407.77L216.435 785.376C216.161 785.58 216 785.901 216 786.242V906.12C216 906.717 216.484 907.2 217.08 907.2H715.417C715.472 907.2 715.525 907.196 715.579 907.188C758.061 900.617 840.729 859.695 862.155 749.004C866.772 725.152 866.197 700.418 859.479 677.071C845.792 629.501 812.287 565.743 744.922 538.266C744.033 537.904 743.952 536.647 744.82 536.238C785.989 516.859 863.419 452.533 861.3 340.2C859.141 225.773 748.902 180.941 693.976 172.811C693.924 172.804 693.874 172.8 693.821 172.8H217.08C216.484 172.8 216 173.284 216 173.88ZM410.4 788.4H696.6C715.5 783 748.44 762.48 750.6 723.6C752.76 684.72 684.9 631.8 648 610.2L410.4 788.4Z" fill="white"/>
</svg>
