<svg width="373" height="256" viewBox="0 0 373 256" fill="none" xmlns="http://www.w3.org/2000/svg">
<path d="M173.24 29.7476C173.24 46.1771 159.923 59.4952 143.494 59.4952C127.065 59.4952 113.742 46.1771 113.742 29.7476C113.742 13.318 127.06 0 143.494 0C159.917 0 173.24 13.318 173.24 29.7476Z" fill="#080E12"/>
<path fill-rule="evenodd" clip-rule="evenodd" d="M227.993 59.392C243.28 58.1246 255.291 45.3368 255.291 29.7476C255.291 13.318 241.951 0 225.493 0C209.036 0 195.695 13.318 195.695 29.7476C195.695 29.7509 195.695 29.7542 195.695 29.7575L195.687 29.7507C195.687 29.7507 193.104 50.8367 180.788 63.2181C169.581 74.4846 144.149 80.9772 139.66 82.0551C125.034 83.9553 113.742 96.437 113.742 111.552C113.742 127.982 127.088 141.3 143.545 141.3C149.816 141.3 155.635 139.366 160.435 136.063C177.503 126.991 192.721 128.511 209.765 136.823C214.33 139.661 219.72 141.3 225.494 141.3C241.951 141.3 255.292 127.982 255.292 111.552C255.292 95.1227 241.951 81.8047 225.494 81.8047C213.582 81.8047 203.303 88.782 198.534 98.8662C196.21 102.072 191.862 106.518 185.611 106.518C180.11 106.518 176.671 105.431 174.716 104.48C177.187 98.8228 182.977 87.1294 191.966 78.0919C201.795 68.2115 220.74 61.6426 227.993 59.392Z" fill="url(#paint0_linear_913_89051)"/>
<path d="M56.601 243.048V255.16H0.666626V245.589L36.2181 202.588H1.39459V190.476H55.625V200.042L19.9549 243.037H56.601V243.048ZM135.388 223.184C135.388 224.234 135.307 225.725 135.145 227.663H84.3067C85.1964 232.427 87.5043 236.222 91.2196 239.048C95.0212 241.794 99.7125 243.167 105.294 243.167C112.411 243.167 118.273 240.825 122.889 236.141L131.015 245.465C128.103 248.937 124.425 251.559 119.977 253.335C115.528 255.112 110.513 256 104.932 256C97.8144 256 91.5485 254.59 86.1239 251.758C80.7046 248.932 76.4986 245.018 73.5059 240.012C70.594 234.925 69.1381 229.192 69.1381 222.813C69.1381 216.514 70.5509 210.862 73.3872 205.856C76.2991 200.768 80.3002 196.812 85.4013 193.986C90.497 191.159 96.2398 189.744 102.63 189.744C108.939 189.744 114.557 191.154 119.491 193.986C124.506 196.731 128.389 200.65 131.139 205.732C133.975 210.749 135.388 216.563 135.388 223.184ZM102.63 201.867C97.7766 201.867 93.6515 203.32 90.2544 206.227C86.9381 209.053 84.916 212.848 84.188 217.612H120.947C120.3 212.929 118.316 209.134 115.005 206.227C111.694 203.315 107.564 201.867 102.63 201.867ZM215.717 223.184C215.717 224.234 215.636 225.725 215.474 227.663H164.636C165.526 232.427 167.833 236.222 171.554 239.048C175.356 241.794 180.047 243.167 185.628 243.167C192.746 243.167 198.607 240.825 203.218 236.141L211.344 245.465C208.432 248.937 204.755 251.559 200.306 253.335C195.857 255.112 190.842 256 185.261 256C178.144 256 171.878 254.59 166.453 251.758C161.034 248.932 156.828 245.018 153.835 240.012C150.923 234.925 149.467 229.192 149.467 222.813C149.467 216.514 150.88 210.862 153.716 205.856C156.628 200.768 160.635 196.812 165.73 193.986C170.826 191.159 176.569 189.744 182.959 189.744C189.268 189.744 194.887 191.154 199.821 193.986C204.835 196.731 208.718 200.65 211.468 205.732C214.299 210.749 215.717 216.563 215.717 223.184ZM182.959 201.867C178.106 201.867 173.981 203.32 170.584 206.227C167.267 209.053 165.245 212.848 164.517 217.612H201.282C200.635 212.929 198.65 209.134 195.334 206.227C192.018 203.315 187.893 201.867 182.959 201.867ZM294.617 190.481L266.831 255.16H251.182L223.401 190.481H239.174L259.314 238.445L280.064 190.481H294.617ZM368.077 223.184C368.077 224.234 367.996 225.725 367.834 227.663H317.001C317.891 232.427 320.193 236.222 323.914 239.048C327.715 241.794 332.407 243.167 337.988 243.167C345.105 243.167 350.972 240.825 355.577 236.141L363.709 245.465C360.797 248.937 357.114 251.559 352.665 253.335C348.217 255.112 343.202 256 337.621 256C330.503 256 324.232 254.59 318.813 251.758C313.393 248.932 309.187 245.018 306.195 240.012C303.283 234.925 301.827 229.192 301.827 222.813C301.827 216.514 303.24 210.862 306.076 205.856C308.988 200.768 312.989 196.812 318.085 193.986C323.18 191.159 328.923 189.744 335.313 189.744C341.622 189.744 347.241 191.154 352.18 193.986C357.195 196.731 361.077 200.65 363.828 205.732C366.659 210.749 368.077 216.563 368.077 223.184ZM335.318 201.867C330.465 201.867 326.34 203.32 322.943 206.227C319.627 209.053 317.605 212.848 316.877 217.612H353.642C352.994 212.929 351.01 209.134 347.694 206.227C344.378 203.315 340.252 201.867 335.318 201.867Z" fill="#080E12"/>
<defs>
<linearGradient id="paint0_linear_913_89051" x1="113.742" y1="16.6234" x2="256.963" y2="18.5735" gradientUnits="userSpaceOnUse">
<stop stop-color="#32B8B2"/>
<stop offset="1" stop-color="#088DB2"/>
</linearGradient>
</defs>
</svg>